<?xml version="1.0" encoding="UTF-8" standalone="no"?>
<!-- Created with Inkscape (http://www.inkscape.org/) -->

<svg
   width="145.68755mm"
   height="31.840473mm"
   viewBox="0 0 145.68755 31.840473"
   version="1.1"
   id="svg1"
   xmlns:inkscape="http://www.inkscape.org/namespaces/inkscape"
   xmlns:sodipodi="http://sodipodi.sourceforge.net/DTD/sodipodi-0.dtd"
   xmlns="http://www.w3.org/2000/svg"
   xmlns:svg="http://www.w3.org/2000/svg">
  <sodipodi:namedview
     id="namedview1"
     pagecolor="#ffffff"
     bordercolor="#000000"
     borderopacity="0.25"
     inkscape:showpageshadow="2"
     inkscape:pageopacity="0.0"
     inkscape:pagecheckerboard="0"
     inkscape:deskcolor="#d1d1d1"
     inkscape:document-units="mm" />
  <defs
     id="defs1" />
  <g
     inkscape:label="Layer 1"
     inkscape:groupmode="layer"
     id="layer1"
     transform="translate(-15.502912,-23.379947)">
    <path
       d="m 38.966898,29.971384 q 0,2.674842 -1.172714,4.848975 -1.159537,2.174133 -3.096492,3.3732 -1.344009,0.830123 -3.004256,1.199067 -1.647071,0.368944 -4.348266,0.368944 H 22.390783 V 20.141669 h 4.901681 q 2.87249,0 4.55909,0.42165 1.699777,0.408473 2.872491,1.133184 2.002837,1.251774 3.122845,3.33367 1.120008,2.081897 1.120008,4.941211 z m -2.727548,-0.03953 q 0,-2.305899 -0.803771,-3.887086 -0.80377,-1.581188 -2.398134,-2.490371 -1.159537,-0.658828 -2.464017,-0.909182 -1.30448,-0.263532 -3.122845,-0.263532 h -2.450841 v 15.13987 h 2.450841 q 1.884248,0 3.280964,-0.276707 1.409892,-0.276708 2.582606,-1.027772 1.462598,-0.935536 2.187309,-2.464017 0.737888,-1.528482 0.737888,-3.821203 z m 9.408066,-7.352522 h -2.793431 v -2.56943 h 2.793431 z M 45.489297,39.76157 H 43.012103 V 25.04335 h 2.477194 z m 12.544087,-0.131766 q -0.698358,0.184472 -1.528481,0.303061 -0.816947,0.118589 -1.462599,0.118589 -2.253192,0 -3.425906,-1.212243 -1.172714,-1.212244 -1.172714,-3.887086 V 27.125247 H 48.770261 V 25.04335 h 1.673423 v -4.229677 h 2.477194 v 4.229677 h 5.112506 v 2.081897 h -5.112506 v 6.70687 q 0,1.159537 0.05271,1.818366 0.05271,0.645651 0.368944,1.212243 0.289884,0.527063 0.790594,0.777417 0.513885,0.237179 1.554834,0.237179 0.606122,0 1.26495,-0.171296 0.658828,-0.184472 0.948712,-0.303061 h 0.131766 z M 73.173255,22.579333 h -2.793432 v -2.56943 h 2.793432 z M 73.015136,39.76157 H 70.537942 V 25.04335 h 2.477194 z m 15.416577,-4.242853 q 0,2.016014 -1.673423,3.307317 -1.660247,1.291303 -4.545914,1.291303 -1.633894,0 -3.004256,-0.38212 -1.357186,-0.395297 -2.279545,-0.856477 v -2.780254 h 0.131765 q 1.172714,0.882829 2.608959,1.409892 1.436246,0.513886 2.753902,0.513886 1.633894,0 2.556253,-0.527063 0.922359,-0.527062 0.922359,-1.660247 0,-0.869653 -0.500709,-1.317656 -0.500709,-0.448003 -1.923778,-0.76424 -0.527063,-0.118589 -1.383539,-0.276708 -0.8433,-0.158119 -1.541658,-0.342591 -1.936955,-0.513886 -2.753901,-1.502128 -0.803771,-1.001419 -0.803771,-2.450841 0,-0.909182 0.368944,-1.712953 0.38212,-0.80377 1.146361,-1.436245 0.737887,-0.619298 1.871072,-0.975066 1.146361,-0.368943 2.556253,-0.368943 1.317656,0 2.661665,0.329414 1.357186,0.316237 2.253193,0.777417 v 2.648489 h -0.131766 q -0.948712,-0.698358 -2.305898,-1.172714 -1.357186,-0.487533 -2.661666,-0.487533 -1.357186,0 -2.292722,0.527063 -0.935536,0.513886 -0.935536,1.541657 0,0.909183 0.566592,1.370363 0.553416,0.46118 1.792013,0.751064 0.685181,0.158119 1.528481,0.316237 0.856477,0.158119 1.423069,0.289885 1.72613,0.395297 2.661665,1.357186 0.935536,0.975065 0.935536,2.582606 z m 25.351707,-2.859314 h -10.84431 q 0,1.357186 0.40848,2.371781 0.40847,1.001419 1.12,1.64707 0.68518,0.632475 1.62072,0.948713 0.94871,0.316237 2.0819,0.316237 1.50213,0 3.01743,-0.592945 1.52848,-0.606122 2.17413,-1.185891 h 0.13177 v 2.701196 q -1.25178,0.527062 -2.55625,0.882829 -1.30448,0.355768 -2.74073,0.355768 -3.66308,0 -5.71863,-1.976485 -2.05554,-1.989661 -2.05554,-5.639568 0,-3.610378 1.96331,-5.731805 1.97648,-2.121427 5.19156,-2.121427 2.9779,0 4.58545,1.739307 1.62071,1.739306 1.62071,4.941211 z m -2.41131,-1.897425 q -0.0132,-1.950131 -0.98824,-3.017433 -0.96189,-1.067301 -2.93837,-1.067301 -1.98966,0 -3.17556,1.172714 -1.17271,1.172714 -1.33083,2.91202 z m 18.48671,1.897425 h -10.84431 q 0,1.357186 0.40848,2.371781 0.40847,1.001419 1.12,1.64707 0.68519,0.632475 1.62072,0.948713 0.94871,0.316237 2.0819,0.316237 1.50213,0 3.01743,-0.592945 1.52848,-0.606122 2.17413,-1.185891 h 0.13177 v 2.701196 q -1.25177,0.527062 -2.55625,0.882829 -1.30448,0.355768 -2.74073,0.355768 -3.66308,0 -5.71863,-1.976485 -2.05554,-1.989661 -2.05554,-5.639568 0,-3.610378 1.96331,-5.731805 1.97648,-2.121427 5.19156,-2.121427 2.97791,0 4.58545,1.739307 1.62071,1.739306 1.62071,4.941211 z m -2.41131,-1.897425 q -0.0132,-1.950131 -0.98824,-3.017433 -0.96189,-1.067301 -2.93837,-1.067301 -1.98966,0 -3.17555,1.172714 -1.17272,1.172714 -1.33084,2.91202 z m 18.47354,8.999592 h -2.4772 v -8.380294 q 0,-1.014595 -0.11858,-1.897425 -0.11859,-0.896006 -0.43483,-1.396715 -0.32941,-0.553416 -0.94871,-0.816947 -0.6193,-0.276708 -1.60754,-0.276708 -1.0146,0 -2.12143,0.50071 -1.10683,0.500709 -2.12143,1.278126 V 39.76157 h -2.47719 V 25.04335 h 2.47719 v 1.633894 q 1.15954,-0.961889 2.39814,-1.502128 1.23859,-0.54024 2.54307,-0.54024 2.38496,0 3.63674,1.436246 1.25177,1.436245 1.25177,4.13744 z m 21.89945,-0.131766 q -0.69836,0.184472 -1.52849,0.303061 -0.81694,0.118589 -1.46259,0.118589 -2.2532,0 -3.42591,-1.212243 -1.17271,-1.212244 -1.17271,-3.887086 v -7.826878 h -1.67343 V 25.04335 h 1.67343 v -4.229677 h 2.47719 v 4.229677 h 5.11251 v 2.081897 h -5.11251 v 6.70687 q 0,1.159537 0.0527,1.818366 0.0527,0.645651 0.36894,1.212243 0.28988,0.527063 0.79059,0.777417 0.51389,0.237179 1.55484,0.237179 0.60612,0 1.26495,-0.171296 0.65883,-0.184472 0.94871,-0.303061 h 0.13177 z m 15.31116,-6.970401 h -10.84431 q 0,1.357186 0.40847,2.371781 0.40847,1.001419 1.12001,1.64707 0.68518,0.632475 1.62072,0.948713 0.94871,0.316237 2.08189,0.316237 1.50213,0 3.01744,-0.592945 1.52848,-0.606122 2.17413,-1.185891 h 0.13176 v 2.701196 q -1.25177,0.527062 -2.55625,0.882829 -1.30448,0.355768 -2.74072,0.355768 -3.66309,0 -5.71863,-1.976485 -2.05555,-1.989661 -2.05555,-5.639568 0,-3.610378 1.96331,-5.731805 1.97649,-2.121427 5.19157,-2.121427 2.9779,0 4.58544,1.739307 1.62072,1.739306 1.62072,4.941211 z m -2.41131,-1.897425 q -0.0132,-1.950131 -0.98824,-3.017433 -0.96189,-1.067301 -2.93838,-1.067301 -1.98966,0 -3.17555,1.172714 -1.17271,1.172714 -1.33083,2.91202 z m 16.68153,4.756739 q 0,2.016014 -1.67342,3.307317 -1.66025,1.291303 -4.54592,1.291303 -1.63389,0 -3.00425,-0.38212 -1.35719,-0.395297 -2.27955,-0.856477 v -2.780254 h 0.13177 q 1.17271,0.882829 2.60895,1.409892 1.43625,0.513886 2.75391,0.513886 1.63389,0 2.55625,-0.527063 0.92236,-0.527062 0.92236,-1.660247 0,-0.869653 -0.50071,-1.317656 -0.50071,-0.448003 -1.92378,-0.76424 -0.52706,-0.118589 -1.38354,-0.276708 -0.8433,-0.158119 -1.54166,-0.342591 -1.93695,-0.513886 -2.7539,-1.502128 -0.80377,-1.001419 -0.80377,-2.450841 0,-0.909182 0.36895,-1.712953 0.38212,-0.80377 1.14636,-1.436245 0.73788,-0.619298 1.87107,-0.975066 1.14636,-0.368943 2.55625,-0.368943 1.31766,0 2.66167,0.329414 1.35718,0.316237 2.25319,0.777417 v 2.648489 h -0.13177 q -0.94871,-0.698358 -2.30589,-1.172714 -1.35719,-0.487533 -2.66167,-0.487533 -1.35719,0 -2.29272,0.527063 -0.93554,0.513886 -0.93554,1.541657 0,0.909183 0.56659,1.370363 0.55342,0.46118 1.79202,0.751064 0.68518,0.158119 1.52848,0.316237 0.85647,0.158119 1.42307,0.289885 1.72613,0.395297 2.66166,1.357186 0.93554,0.975065 0.93554,2.582606 z m 11.1869,4.111087 q -0.69836,0.184472 -1.52849,0.303061 -0.81694,0.118589 -1.46259,0.118589 -2.2532,0 -3.42591,-1.212243 -1.17271,-1.212244 -1.17271,-3.887086 v -7.826878 h -1.67343 V 25.04335 h 1.67343 v -4.229677 h 2.47719 v 4.229677 h 5.11251 v 2.081897 h -5.11251 v 6.70687 q 0,1.159537 0.0527,1.818366 0.0527,0.645651 0.36894,1.212243 0.28988,0.527063 0.79059,0.777417 0.51389,0.237179 1.55484,0.237179 0.60612,0 1.26495,-0.171296 0.65883,-0.184472 0.94871,-0.303061 h 0.13177 z"
       id="text1"
       style="font-size:26.9856px;line-height:0.8;fill:#1a1a1a;fill-opacity:0.976471;stroke:#C0C0C0;stroke-width:.5;stroke-linecap:square;stroke-miterlimit:0;stroke-opacity:1"
       transform="scale(0.76497403,1.3072339)"
       aria-label="Dit is een test " />
  </g>
</svg>
