<?xml version="1.0" encoding="UTF-8" standalone="no"?>
<svg 
    width="250px"
    height="250px"
    viewBox="0 0 250 250"
    id="fill"
    xmlns="http://www.w3.org/2000/svg"
    xmlns:svg="http://www.w3.org/2000/svg">
    <path 
        style="fill:#F4CF84;fill-rule:evenodd;stroke:#D07735;stroke-width:.5"
        d="M124.999,202.856
    c-42.93,0-77.855-34.928-77.855-77.858s34.925-77.855,77.855-77.855s77.858,34.925,77.858,77.855S167.929,202.856,124.999,202.856z
    M125.003,245.385c-7.61,0-13.025-6.921-17.802-13.03c-2.79-3.559-6.259-8.002-8.654-8.638c-0.318-0.085-0.71-0.134-1.159-0.134 c-2.873,0-7.1,1.698-11.188,3.335c-4.929,1.973-10.029,4.021-14.774,4.021c-2.486,0-4.718-0.563-6.633-1.677 c-6.451-3.733-7.618-11.959-8.742-19.919c-0.646-4.571-1.45-10.261-3.292-12.096c-1.84-1.845-7.524-2.646-12.093-3.298 c-7.96-1.119-16.192-2.286-19.927-8.739c-3.682-6.358-0.614-14.005,2.35-21.404c1.829-4.563,3.904-9.735,3.201-12.352 c-0.638-2.392-5.073-5.861-8.64-8.648C11.539,138.025,4.618,132.612,4.618,125c0-7.61,6.921-13.025,13.027-17.802
    c3.567-2.79,8.002-6.259,8.64-8.651c0.702-2.614-1.375-7.789-3.201-12.349c-2.961-7.399-6.029-15.046-2.347-21.409 c3.733-6.451,11.962-7.618,19.924-8.742c4.569-0.646,10.253-1.45,12.096-3.292c1.84-1.84,2.646-7.524,3.29-12.093 c1.127-7.96,2.291-16.192,8.745-19.924c1.914-1.111,4.147-1.674,6.633-1.674c4.745,0,9.845,2.045,14.771,4.021 c4.085,1.639,8.312,3.335,11.188,3.335c0.446,0,0.836-0.045,1.161-0.131c2.392-0.641,5.861-5.079,8.654-8.643
    c4.782-6.109,10.194-13.03,17.804-13.03c7.612,0,13.025,6.921,17.804,13.027c2.782,3.565,6.259,8.002,8.654,8.643 c0.323,0.085,0.71,0.131,1.161,0.131c2.876,0,7.094-1.696,11.185-3.332c4.932-1.976,10.029-4.021,14.779-4.021 c2.478,0,4.715,0.563,6.627,1.671c6.448,3.733,7.618,11.962,8.739,19.927c0.646,4.569,1.453,10.253,3.292,12.093 c1.84,1.84,7.524,2.646,12.096,3.292c7.96,1.127,16.189,2.291,19.919,8.745c3.687,6.36,0.619,14.007-2.344,21.404
    c-1.824,4.563-3.898,9.735-3.201,12.347c0.641,2.395,5.079,5.864,8.643,8.657c6.104,4.774,13.025,10.189,13.025,17.799 c0,7.612-6.921,13.025-13.03,17.804c-3.559,2.788-8.002,6.264-8.638,8.654c-0.702,2.614,1.375,7.783,3.201,12.347 c2.964,7.399,6.032,15.046,2.344,21.409c-3.733,6.448-11.959,7.618-19.924,8.739c-4.566,0.646-10.256,1.453-12.09,3.292 c-1.845,1.84-2.646,7.524-3.298,12.096c-1.119,7.96-2.291,16.189-8.745,19.919c-1.909,1.113-4.147,1.677-6.627,1.677 c-4.745,0-9.839-2.048-14.768-4.021c-4.091-1.637-8.315-3.335-11.19-3.335c-0.446,0-0.836,0.048-1.161,0.134 c-2.392,0.635-5.861,5.073-8.648,8.638C138.027,238.464,132.615,245.385,125.003,245.385z"
        id="flower" />
</svg>
