<?xml version="1.0" encoding="UTF-8" standalone="no"?>
<!-- Created with Inkscape (http://www.inkscape.org/) -->

<svg
   width="118.61866mm"
   height="209.81339mm"
   viewBox="0 0 118.61866 209.81339"
   version="1.1"
   id="svg1"
   xmlns:inkscape="http://www.inkscape.org/namespaces/inkscape"
   xmlns:sodipodi="http://sodipodi.sourceforge.net/DTD/sodipodi-0.dtd"
   xmlns="http://www.w3.org/2000/svg"
   xmlns:svg="http://www.w3.org/2000/svg">
  <sodipodi:namedview
     id="namedview1"
     pagecolor="#ffffff"
     bordercolor="#000000"
     borderopacity="0.25"
     inkscape:showpageshadow="2"
     inkscape:pageopacity="0.0"
     inkscape:pagecheckerboard="0"
     inkscape:deskcolor="#d1d1d1"
     inkscape:document-units="mm" />
  <defs
     id="defs1" />
  <g
     inkscape:label="Layer 1"
     inkscape:groupmode="layer"
     id="layer1"
     transform="translate(-9.6641838,-70.393965)">
    <path
       style="fill:#E0E0E0;stroke:#808080;stroke-width:.5;stroke-linecap:square"
       d="m 12.646625,178.63358 c 1.143272,-2.22978 2.80916,-4.14433 4.742484,-5.69099 0.573963,-0.45917 0.972218,-1.17508 1.580828,-1.58083 0.818868,-0.54591 1.704348,-1.03084 2.529325,-1.58082 0.248021,-0.16535 0.365717,-0.49903 0.632331,-0.63233 0.657985,-0.329 4.984365,1.85985 5.690982,2.21315 0.249674,0.12484 0.681858,-0.0889 0.948497,0 1.962827,0.65428 4.544962,1.4781 6.639478,1.897 1.461476,0.29229 2.964841,0.34004 4.426317,0.63233 0.653593,0.13072 1.264664,0.42155 1.896994,0.63233 1.053886,0.10539 2.116926,0.14205 3.161657,0.31617 0.23245,0.0387 0.401251,0.26995 0.63233,0.31616 1.526564,0.30532 2.538934,-0.54748 3.793988,-1.26466 0.659836,-0.37705 1.505995,-0.613 1.896993,-1.26466 1.659147,-2.76525 0.861063,-3.59884 0.316167,-6.32331 -1.131469,-5.65736 0.527246,0.21173 -0.948497,-4.42632 -1.386506,-4.35759 -2.485451,-9.10299 -5.058651,-12.96279 -0.524293,-0.78645 -0.07265,-0.0363 -0.63233,-0.31617 -0.471313,-0.23566 -0.807148,-0.68706 -1.264663,-0.9485 -1.182577,-0.67576 -2.707971,-1.08248 -3.793988,-1.89699 -1.365837,-1.02438 -0.05087,-0.18751 -0.948496,-1.26466 -0.381657,-0.45799 -0.876681,-0.81202 -1.264661,-1.26466 -0.487416,-0.56865 -1.821738,-3.04878 -1.896994,-3.16166 -0.165349,-0.24802 -0.47897,-0.37673 -0.632333,-0.63233 -0.431271,-0.71879 -0.589677,-1.81169 -0.948497,-2.52933 -0.657902,-1.3158 0.02183,0.338 -0.63233,-0.31616 -0.07452,-0.0745 0.04713,-0.22191 0,-0.31617 -0.133308,-0.26661 -0.499025,-0.36572 -0.63233,-0.63233 -0.150442,-0.30088 -1.176018,-2.44068 -1.264664,-2.52933 -0.07452,-0.0745 -0.241644,0.0745 -0.316166,0 -0.128413,-0.12841 0,-4.70528 0,-5.37481 0,-0.48782 -0.07942,-3.3984 0,-3.47782 0.158083,-0.15808 0.47425,-0.15808 0.632333,-0.31617 0.07452,-0.0745 -0.07452,-0.24164 0,-0.31616 0.121409,-0.12142 3.553611,-0.31617 4.110151,-0.31617 4.695505,0 11.966366,0.0862 14.859786,4.42632 0.233277,0.34992 0.427624,1.17142 0.63233,1.58083 0.31896,0.63792 -0.06894,1.7187 -0.316167,2.21316 -0.219016,0.43803 -0.371101,1.18898 -0.63233,1.58082 -0.745006,1.11751 -0.787688,0.15536 -1.580827,0.9485 -0.07452,0.0745 0.07452,0.24165 0,0.31617 -0.494901,0.4949 -1.33962,0.66981 -1.896994,0.94849 -0.709946,0.35498 -2.233136,1.90699 -2.84549,2.21316 -0.09426,0.0471 -0.241647,-0.0745 -0.316167,0 -0.137977,0.13798 -0.795877,1.59176 -0.948497,1.897 -0.126465,0.25293 0.126466,0.69556 0,0.9485 -0.07728,0.15456 -0.612925,0.65173 -0.316166,0.94849 0.07452,0.0745 0.241647,-0.0745 0.316166,0 0.189783,0.18979 0.258702,0.69941 0.632331,0.9485 0.218458,0.14564 1.709274,0.88592 1.896993,0.9485 0.199962,0.0667 0.432372,-0.0667 0.632333,0 0.141394,0.0471 0.174771,0.26903 0.316164,0.31616 0.199962,0.0667 0.432372,-0.0666 0.632333,0 0.680302,0.22677 1.413394,0.78855 2.213158,0.9485 3.536915,0.70738 7.123512,1.8041 10.749632,2.52932 0.310025,0.062 0.638471,-0.062 0.948496,0 4.622419,0.92449 0.577969,0.30258 3.161657,0.9485 3.45898,0.86475 7.030263,1.94176 10.117299,3.79399 1.482177,0.8893 2.740102,2.10777 4.110154,3.16165 2.45949,1.89192 4.73673,3.84974 6.639478,6.32332 1.086527,1.41248 2.789534,4.52089 3.477821,5.69098 1.906516,3.24107 0.147791,-0.0687 2.529326,5.37481 0.18891,0.4318 0.508321,0.80996 0.632331,1.26466 0.596204,2.18609 0.09491,8.1254 -1.58083,9.80114 -0.99464,0.99464 -2.583159,1.60775 -3.793987,2.21316 -1.100942,0.55047 -2.072328,1.35233 -3.161655,1.89699 -1.683927,0.84197 -3.364851,1.1442 -5.05865,1.89699 -0.347234,0.15433 -0.581343,0.53443 -0.948497,0.63234 -1.238816,0.33035 -2.55016,0.32137 -3.793988,0.63233 -1.519457,0.37986 -2.842188,1.58017 -4.426317,1.89699 -1.807843,0.36157 -6.395929,0.53401 -6.955645,2.21316 -0.199961,0.59988 0,1.26466 0,1.897 0,1.22037 -0.0087,4.0841 0.316167,5.05864 0.223562,0.67069 0.63233,1.26467 0.948497,1.897 1.241152,2.4823 1.497705,3.23934 4.110151,4.11015 0.223565,0.0745 0.398497,0.28694 0.632333,0.31617 0.526941,0.0659 2.459064,-0.0439 3.161654,0 5.493496,0.34334 11.42541,0.82862 16.756779,-0.9485 1.293948,-0.43132 2.434334,-1.74671 3.477821,-2.52933 0.08431,-0.0632 0.241644,0.0745 0.316167,0 0.716478,-0.71647 1.097015,-1.99881 1.580827,-2.84549 0.796282,-1.39349 1.720371,-2.72337 2.529327,-4.11015 0.810569,-1.38955 1.895631,-2.63154 2.529324,-4.11015 0.617159,-1.44004 0.998966,-2.97166 1.580827,-4.42632 2.066865,-5.16716 4.631725,-10.07099 4.110155,-15.80828 -0.24835,-2.73187 -5.224993,-10.15047 -6.639479,-12.64662 -4.233976,-7.47173 -8.437113,-14.96419 -12.646626,-22.44776 -1.356346,-2.41129 -3.824083,-6.28815 -5.05865,-9.16881 -1.264211,-2.94982 -3.326821,-7.73664 -4.110151,-11.0658 -0.120693,-0.51293 0.03754,-1.05522 0,-1.58082 -0.068,-0.95191 -0.171054,-1.90226 -0.316167,-2.84549 -1.11052,-7.21838 -1.602682,-15.110595 -6.639478,-20.866933 -1.58905,-1.816061 -3.195804,-3.50628 -5.058651,-5.058651 C 61.896987,86.200958 56.977375,83.038081 56.27748,80.938398 56.122405,80.473176 56.116389,79.822793 55.961314,79.357571 55.75941,78.751858 55.29423,77.213917 55.64515,76.51208 c 0.679225,-1.35845 2.345671,-1.875078 3.477821,-2.84549 1.128866,-0.9676 1.681459,-1.843111 3.161657,-2.21316 0.384048,-0.09601 0.865611,0 1.26466,0 3.071469,0 3.274439,0.774165 5.690981,2.84549 2.36015,2.022983 4.898853,3.683093 7.271811,5.690981 1.439397,1.217954 1.183209,1.533435 2.529324,3.477821 1.199764,1.732994 2.568872,3.343487 3.793988,5.058651 2.275207,3.185289 4.718335,6.189937 6.323311,9.801135 0.311608,0.701111 0.352751,1.498671 0.632333,2.213162 1.662959,3.80105 2.149491,4.76664 3.477821,8.2203 1.608304,4.18159 2.886419,8.56328 4.742484,12.64663 1.469038,3.23188 3.517419,6.11603 4.742489,9.48497 0.56263,1.54724 0.94942,3.2271 1.58083,4.74248 0.36254,0.87012 0.92628,1.64953 1.26466,2.52933 0.1929,0.50156 0.0588,1.10906 0.31616,1.58082 0.39415,0.72261 1.10881,1.22268 1.58083,1.897 0.27028,0.38611 0.3709,0.8725 0.63233,1.26466 0.77555,1.16332 1.84048,2.21493 2.52933,3.47782 2.51527,4.61133 3.84053,9.05388 5.69098,13.91129 1.55171,4.07324 2.64936,6.86885 3.79399,11.06579 1.11115,4.07423 0.84689,8.15285 1.26466,12.33046 0.4874,4.87398 0.18742,-0.72513 0.63233,5.05865 0.30326,3.94234 0.0749,8.10354 -0.31617,12.0143 -0.12502,1.25027 0.15574,2.54805 0,3.79398 -0.33486,2.67894 -0.55864,7.20865 -2.84549,9.16881 -1.11014,0.95155 -2.44716,1.48259 -3.79399,1.89699 -2.70639,0.83274 -4.73181,1.51617 -7.58797,1.897 -2.04834,0.27311 -4.25062,0 -6.32331,0 -4.869026,0 -9.703638,0.12383 -14.543621,-0.31617 -1.44267,-0.13115 -2.971935,0 -4.426318,0 -5.436983,0 -9.339712,0.17091 -13.278955,4.11015 -0.770705,0.77071 -1.557907,1.51206 -1.896994,2.52933 -0.133308,0.39992 0.08267,0.85129 0,1.26466 -0.153583,0.7679 -0.46115,0.85591 -0.316167,1.58083 0.16269,0.81345 0.355852,2.47045 0.632331,3.16165 0.141123,0.35281 0.491209,0.5957 0.632333,0.9485 0.07828,0.1957 -0.07828,0.43663 0,0.63233 0.228224,0.57057 0.706427,1.016 0.948497,1.58083 0.3547,0.82764 0.471262,1.76575 0.948496,2.52933 0.357651,0.57224 0.936943,0.99093 1.264661,1.58082 0.211027,0.37985 0.14904,0.86356 0.316167,1.26467 0.362548,0.87011 0.817763,1.69937 1.264663,2.52932 2.698387,5.01129 6.072717,10.49904 10.117299,14.54362 1.302361,1.30236 3.52021,4.08896 5.374814,3.16166 1.915306,-0.95765 2.68256,-2.44301 3.79399,-4.11016 0.165346,-0.24802 0.499023,-0.36571 0.632331,-0.63233 1.343829,-2.68766 -0.157528,-0.23907 0.316166,-1.89699 -1.193072,-1.54106 0.724932,-1.22631 0.948497,-1.89699 0.169934,-0.50981 0.168534,-1.06413 0.316164,-1.58083 0.281966,-0.98688 0.858094,-2.52916 1.264663,-3.47783 0.149683,-0.34926 0.498909,-0.5927 0.632331,-0.94849 0.87881,-2.3435 1.178107,-9.65808 0,-12.01429 -0.943351,-1.88671 -7.925507,-4.67146 -9.801135,-5.37482 -0.395526,-0.14832 -4.098616,-0.65541 -3.793988,-1.26466 0.236821,-0.47364 1.438693,-0.67352 1.896994,-0.9485 2.705663,-1.6234 5.013373,-1.40663 8.220308,-0.9485 0.417316,0.0596 0.86474,-0.1333 1.264663,0 0.141393,0.0471 0.210775,0.21078 0.316164,0.31617 0.210778,0.10539 0.403712,0.25901 0.632333,0.31616 1.036987,0.25925 2.242666,0.57543 3.161654,1.26467 0.662977,0.49723 1.829705,1.13008 2.213159,1.89699 0.22677,0.45353 0.31243,1.10097 0.63233,1.58083 0.0827,0.12401 0.26904,0.17477 0.31617,0.31616 0.18675,0.56026 -0.11626,1.3157 0,1.897 0.5736,2.868 0.71948,6.60705 0,9.48497 -0.22318,0.8927 0.22317,1.95278 0,2.84549 -0.41814,1.67255 -0.78495,3.37966 -1.264665,5.05865 -0.217085,0.7598 -2.649609,7.46769 -1.896994,8.2203 0.430782,0.43078 0.304321,-0.31024 0.316167,-0.31616 0.188523,-0.0943 0.432371,0.0666 0.63233,0 0.241626,-0.0806 0.716423,-0.5163 0.948497,-0.63233 0.632335,-0.31617 0.948495,-1.26467 1.580825,-1.58083 1.45319,-0.7266 0.55037,0.082 1.26467,-0.63233 1.23617,-1.23618 1.34893,-2.50842 0.94849,-4.11016 -0.0511,-0.20448 0.21078,-0.63233 0,-0.63233 -0.10539,0 -0.10539,0.31617 0,0.31617 0.10539,0 0,-0.21078 0,-0.31617 0,-0.63233 0,-1.26466 0,-1.89699 0,-0.90524 -0.0442,-1.49238 0.31617,-2.21316 0.23313,-0.46625 -0.35445,-1.85871 0,-2.21316 0.64967,-0.64967 1.76382,-1.0705 2.52932,-1.58083 0.91909,-0.61272 2.17526,-2.13477 3.16166,-2.52932 0.77278,-0.30911 7.94375,-1.08678 8.85264,-0.63233 0.96456,0.48228 1.35627,1.00956 2.21316,1.58082 1.74496,1.16331 5.17114,3.28482 6.00714,5.37482 0.10539,0.42155 0.21078,0.84311 0.31617,1.26466 0,0.10539 -0.0256,0.21392 0,0.31617 0.26408,1.05632 0.30687,1.2786 -0.31617,2.21316 -0.23945,0.35918 -0.86835,1.13256 -1.26466,1.26466 -1.14118,0.38039 -2.99602,-0.0933 -4.11015,-0.31617 -1.4047,-0.28094 -2.99969,0.11889 -4.42632,0 -4.21296,-0.35108 -1.54222,-0.31616 -3.79399,-0.31616 -0.13177,0 -4.19873,-0.22759 -4.42632,0 -0.20367,0.20367 0.0995,0.96626 0,1.26466 -0.17947,0.53841 -0.43305,1.04943 -0.63233,1.58083 -1.04946,2.79855 -1.6381,7.64525 -3.79398,9.80113 -0.16664,0.16664 -0.44832,0.16896 -0.63234,0.31617 -1.0348,0.82784 -1.84061,1.98416 -2.84549,2.84549 -1.705066,1.46148 -3.527185,2.81681 -5.374813,4.11014 -4.046479,2.83255 -9.054406,4.50705 -13.595122,6.32333 -3.839827,1.53593 -7.785465,3.5714 -12.014293,3.79399 -3.806449,0.20032 -6.663801,-0.57155 -10.433465,-0.9485 -2.620901,-0.2621 -5.27213,-0.28903 -7.904141,-0.63233 -4.193429,-0.54697 -6.691659,-1.10646 -10.749632,-2.21316 -1.473546,-0.40187 -4.203462,-0.72564 -5.374814,-1.89701 -0.863442,-0.86344 -2.102139,-3.17034 -2.529324,-4.11014 -1.549146,-3.40813 -1.104967,-6.51856 -0.948497,-10.1173 0.07782,-1.78992 -0.162206,-3.59057 0,-5.37482 0.106674,-1.17344 0.515085,-2.30539 0.63233,-3.47782 0.233125,-2.33125 -0.423815,-0.20174 0.316167,-3.16166 1.192162,-4.76865 5.15747,-8.27961 7.587974,-12.33045 0.347189,-0.57866 0.92986,-0.99493 1.264661,-1.58083 1.54954,-2.7117 1.704576,-6.00035 2.845491,-8.85264 0.350083,-0.8752 0.966578,-1.63507 1.264663,-2.52933 0.491014,-1.47304 0.889836,-2.16916 2.21316,-3.16165 0.999453,-0.74959 2.34922,-0.70036 3.477821,-1.26466 0.561165,-0.28059 1.036952,-0.93834 1.580827,-1.26467 0.404149,-0.24249 0.860518,-0.38984 1.264664,-0.63233 0.497101,-0.29826 0.781015,-0.94223 1.264663,-1.26466 0.159218,-0.69656 0.650412,-0.16713 0.948497,-0.31616 0.202387,-0.1012 1.135943,-0.50362 1.26466,-0.63234 0.07452,-0.0745 -0.07452,-0.24164 0,-0.31616 0.149043,-0.14904 0.483291,0.14904 0.632333,0 0.04927,-0.0493 0.369544,-0.89512 0.632331,-0.63233 0.07452,0.0745 -0.07452,0.24164 0,0.31616 0.219056,0.21906 1.36177,0.0971 1.580827,0.31617 0.07452,0.0745 -0.07452,0.24164 0,0.31616 0.158083,0.15809 0.47425,0.15809 0.632333,0.31617 0.01111,0.0111 0.203594,0.83593 0.316164,0.9485 0.149042,0.14904 0.421555,0 0.632333,0 0.840941,0 2.066657,0.70558 2.84549,0.31616 0.133305,-0.0666 0.182859,-0.24951 0.316164,-0.31616 0.707152,-0.35358 1.386152,0.38935 1.896994,-0.63233 0.09329,-0.1866 0,-0.736 0,-0.9485 0,-0.21251 0.09329,-0.76191 0,-0.9485 -0.498036,-0.99607 -3.822682,-2.06942 -4.742484,-2.52933 -0.282787,-0.14139 -0.648555,0.1 -0.948497,0 -0.141394,-0.0471 -0.171572,-0.28001 -0.316164,-0.31616 -0.306726,-0.0767 -0.648557,0.1 -0.948497,0 -0.09998,-0.0333 0,-0.21078 0,-0.31617 -0.210778,0 -0.421555,0 -0.632333,0 -0.230259,0 -1.705565,0.19143 -1.896994,0 -0.273656,-0.27365 -0.418906,-1.26466 0.316167,-1.26466 1.500275,0 2.607738,0.31617 4.110154,0.31617 0.316164,0 0.724932,-0.22356 0.948497,0 0.07452,0.0745 -0.07452,0.24164 0,0.31616 0.252349,0.25235 1.249124,-0.16585 1.580827,0 0.733763,0.36688 1.491927,0.90405 2.21316,1.26466 0.770311,0.38516 1.769041,0.56836 2.529324,0.9485 0.252934,0.12647 0.695566,-0.12646 0.948497,0 1.206741,0.60337 2.489602,0.82987 3.793987,1.26466 0.370732,0.12358 0.916485,-0.17409 1.264664,0 0.09426,0.0471 -0.09998,0.28284 0,0.31617 0.379399,0.12647 0.885264,-0.12647 1.26466,0 2.001388,0.66713 4.507344,0.31617 6.639478,0.31617 3.892148,0 7.52099,0.31616 11.381965,0.31616 1.958628,0 5.572333,0.42487 7.271813,0 0.33379,-0.0834 1.5672,-0.64595 0.94849,-1.26466 -0.44442,-0.44442 -3.310393,-0.68191 -4.110152,-0.9485 -0.898229,-0.29941 -2.322121,0.41977 -3.161654,0 -0.80182,-0.40091 -1.727507,-0.23142 -2.529327,-0.63233 -0.178136,-0.0891 -10.526178,-0.0745 -10.749632,0 -0.141393,0.0471 -0.182856,0.24951 -0.316164,0.31617 -0.139665,0.0698 -5.567063,0.062 -5.690981,0 -0.843108,-0.42156 0.948497,-0.31617 -0.316166,-0.31617 -1.050129,0 -4.645914,0.36445 -5.374815,0 -1.281737,-0.64087 -2.068094,-0.47859 -3.477823,-0.9485 -0.266637,-0.0889 -0.69882,0.12484 -0.948497,0 -0.133305,-0.0666 -0.182859,-0.24951 -0.316164,-0.31616 -0.188526,-0.0943 -0.48329,0.14904 -0.632333,0 -0.07452,-0.0745 0.07452,-0.24165 0,-0.31617 -0.145357,-0.14536 -1.016024,-0.50801 -1.264661,-0.63233 -0.188526,-0.0943 -0.443806,0.0943 -0.632333,0 -1.446963,-0.72348 1.341623,0.13104 -0.948496,-0.63233 -0.499902,-0.16663 -1.061054,0.0866 -1.580828,0 -0.715131,-0.11919 -2.239552,-0.64553 -2.84549,-0.9485 -0.573627,-0.28681 -1.607881,-0.074 -2.21316,-0.31616 -0.437603,-0.17504 -0.817536,-0.48329 -1.264661,-0.63233 -1.385144,-0.46172 -3.002717,-0.47397 -4.42632,-0.9485 -2.485052,-0.82835 3.392045,0.29901 -2.845491,-0.9485 -0.310025,-0.062 -0.641771,0.0767 -0.948497,0 -0.55059,-0.13764 -1.035129,-0.47642 -1.580827,-0.63233 -0.907976,-0.25942 -1.953575,-0.18637 -2.84549,-0.63233 -0.133308,-0.0667 -0.174774,-0.26903 -0.316167,-0.31617 -0.6325,-0.21083 -2.907369,-0.3471 -3.477821,-0.63233 -1.49788,-0.74894 -2.684227,-1.08308 -4.426318,-1.58082 -2.176716,-0.62192 -4.269009,-1.93247 -6.323314,-2.84549 -3.803238,-1.69033 -7.348958,-3.83257 -11.065796,-5.69099 -0.305707,-0.15285 -1.964353,-1.07633 -2.529325,-1.26466 -0.09998,-0.0333 -0.241645,0.0745 -0.316166,0 -0.305954,-0.30596 -0.09284,-0.50184 -0.316165,-0.9485 -0.657903,-1.3158 0.02183,0.338 -0.632331,-0.31616 -0.333268,-0.33327 -0.370895,-0.87251 -0.632331,-1.26466 -0.232522,-0.34878 -0.761744,-0.57499 -0.948497,-0.9485 -0.09426,-0.18853 0.09426,-0.44381 0,-0.63233 -0.520929,-1.04186 -0.316166,-2.5413 -0.316166,-3.79399 0,-0.23026 -0.191428,-1.70557 0,-1.89699 0.149042,-0.14904 0.483289,0.14904 0.632331,0 0.07452,-0.0745 0,-0.21078 0,-0.31617 0.421554,-0.31616 0.843109,-0.63233 1.264663,-0.94849 z"
       id="path1" />
  </g>
</svg>
